<?xml version="1.0" encoding="utf-8"?>
<!-- Generator: Adobe Illustrator 26.0.1, SVG Export Plug-In . SVG Version: 6.00 Build 0)  -->
<svg version="1.1" id="Layer_1" xmlns="http://www.w3.org/2000/svg" xmlns:xlink="http://www.w3.org/1999/xlink" x="0px" y="0px"
	 viewBox="0 0 24 24" style="enable-background:new 0 0 24 24;" xml:space="preserve">
<g>
	<g>
		<rect x="21" y="6" width="2" height="12"/>
		<rect x="1" y="6" width="2" height="12"/>
		<path d="M20.4,12l-3.7,3.7C16.5,15.9,16.3,16,16,16s-0.5-0.1-0.7-0.3c-0.4-0.4-0.4-1,0-1.4l1.3-1.3H7.4l1.3,1.3
			c0.4,0.4,0.4,1,0,1.4C8.5,15.9,8.3,16,8,16s-0.5-0.1-0.7-0.3L3.6,12l3.7-3.7c0.4-0.4,1-0.4,1.4,0c0.4,0.4,0.4,1,0,1.4L7.4,11h9.2
			l-1.3-1.3c-0.4-0.4-0.4-1,0-1.4c0.4-0.4,1-0.4,1.4,0L20.4,12z"/>
	</g>
</g>
</svg>
