<?xml version="1.0" encoding="utf-8"?>
<!-- Generator: Adobe Illustrator 26.0.1, SVG Export Plug-In . SVG Version: 6.00 Build 0)  -->
<svg version="1.1" id="Layer_1" xmlns="http://www.w3.org/2000/svg" xmlns:xlink="http://www.w3.org/1999/xlink" x="0px" y="0px"
	 viewBox="0 0 24 24" style="enable-background:new 0 0 24 24;" xml:space="preserve">
<path d="M21,3v6c0,0.5-0.5,1-1,1s-1-0.5-1-1V6.4l-3.3,3.3c-0.4,0.4-1,0.4-1.4,0c-0.4-0.4-0.4-1,0-1.4c0,0,0,0,0,0L17.6,5H15
	c-0.5,0-1-0.5-1-1s0.5-1,1-1H21z"/>
<path d="M10,20c0,0.5-0.5,1-1,1H3v-6c0-0.5,0.5-1,1-1s1,0.5,1,1v2.6l3.3-3.3c0.4-0.4,1-0.4,1.4,0c0.4,0.4,0.4,1,0,1.4c0,0,0,0,0,0
	L6.4,19H9C9.5,19,10,19.5,10,20z"/>
</svg>
