<svg viewBox="0 0 24 24" fill="none">
    <path stroke="currentColor" stroke-linecap="round" stroke-width="var(--svg-stroke-width)"
        d="M17 14v3m0 0v3m0-3h-3m3 0h3m-15-13h4c.5523 0 1 .4477 1 1v4c0 .5523-.4477 1-1 1h-4c-.5523 0-1-.4477-1-1v-4c0-.5523.4477-1 1-1Zm9.1637 5.6452 2.6093-5.6534c.0894-.1936.3646-.1936.454 0l2.6093 5.6534c.0764.1657-.0446.3548-.227.3548h-5.2186c-.1824 0-.3034-.1891-.227-.3548Zm-9.285 9.4761c1.1715 1.1716 3.071 1.1716 4.2426 0 1.1716-1.1716 1.1716-3.0711 0-4.2426-1.1715-1.1716-3.071-1.1716-4.2426 0-1.1716 1.1715-1.1716 3.071 0 4.2426Z">
    </path>
    <path stroke="currentColor" stroke-width="var(--svg-stroke-width)" d="M9 10v.0001"></path>
</svg>