<svg xmlns="http://www.w3.org/2000/svg" width="55" height="55" viewBox="0 0 55 55"><rect width="55" height="55" rx="4" fill="#f2f2f2" opacity="0"/><path d="M28.548,19.639A1.443,1.443,0,0,1,27.2,18.587a9.95,9.95,0,0,0-8.716-6.913A11.161,11.161,0,0,0,8.41,16.634h3.607a1.5,1.5,0,1,1,0,3.006H3V10.622a1.42,1.42,0,0,1,1.5-1.5,1.42,1.42,0,0,1,1.5,1.5V14.68A14.224,14.224,0,0,1,18.629,8.819,13.209,13.209,0,0,1,30.05,17.836a1.563,1.563,0,0,1-.9,1.954A1.136,1.136,0,0,0,28.548,19.639Z" transform="translate(11 13.238)"/></svg>