<svg xmlns="http://www.w3.org/2000/svg" width="55" height="55" viewBox="0 0 55 55"><g transform="translate(0 -694)"><rect width="55" height="55" rx="4" transform="translate(0 694)" fill="#3af5a3" opacity="0"/><path d="M2,4.7A2.708,2.708,0,0,1,4.7,2H26.3A2.708,2.708,0,0,1,29,4.7V26.3A2.708,2.708,0,0,1,26.3,29H4.7A2.708,2.708,0,0,1,2,26.3Zm12.15,5.4a1.35,1.35,0,1,1,2.7,0v4.05H20.9a1.35,1.35,0,1,1,0,2.7H16.85V20.9a1.35,1.35,0,1,1-2.7,0V16.85H10.1a1.35,1.35,0,1,1,0-2.7h4.05Z" transform="translate(12.179 706)" fill-rule="evenodd"/></g></svg>