<svg xmlns="http://www.w3.org/2000/svg" width="55" height="55" viewBox="0 0 55 55"><g transform="translate(0 -515)"><rect width="55" height="55" rx="4" transform="translate(0 515)" fill="#3af5a3" opacity="0"/><path d="M4.7,6.7V22.9h7.83l2.97,2.97,2.97-2.97H26.3V6.7ZM4.7,4H26.3A2.708,2.708,0,0,1,29,6.7V22.9a2.708,2.708,0,0,1-2.7,2.7H19.55L15.5,29.65,11.45,25.6H4.7A2.708,2.708,0,0,1,2,22.9V6.7A2.708,2.708,0,0,1,4.7,4Zm5.4,6.75A1.275,1.275,0,0,0,8.75,12.1a1.275,1.275,0,0,0,1.35,1.35H20.9a1.275,1.275,0,0,0,1.35-1.35,1.275,1.275,0,0,0-1.35-1.35Zm0,5.4a1.35,1.35,0,1,0,0,2.7H20.9a1.35,1.35,0,1,0,0-2.7Z" transform="translate(12.179 526)"/></g></svg>