<svg xmlns="http://www.w3.org/2000/svg" width="55" height="55" viewBox="0 0 55 55"><g transform="translate(0 -452)"><rect width="55" height="55" rx="4" transform="translate(0 452)" fill="#3af5a3" opacity="0"/><path d="M19.978,4.252h0a3.531,3.531,0,0,0-6.583,0L5.6,25.732v8.142a2.736,2.736,0,0,0,2.772,2.772H24.828A2.736,2.736,0,0,0,27.6,33.874V25.732ZM15.994,5.291a.928.928,0,0,1,.693-.52.646.646,0,0,1,.693.52L19.8,12.047H13.742ZM25,33.874H8.372v-7.8l4.157-11.606h8.142l4.157,11.606v7.8Z" transform="translate(10.579 460)"/></g></svg>