<svg xmlns="http://www.w3.org/2000/svg" width="55" height="55" viewBox="0 0 55 55"><g transform="translate(0 -633)"><rect width="55" height="55" rx="4" transform="translate(0 633)" fill="#3af5a3" opacity="0"/><path d="M13.854,15.039l-2.107,2.107A1.3,1.3,0,0,1,9.9,15.3h0l5.268-5.268L20.439,15.3A1.3,1.3,0,0,1,18.6,17.146l-2.107-2.107V27.683a1.317,1.317,0,1,1-2.634,0Zm6.585,10.668a1.244,1.244,0,0,1,1.317-1.317h3.951V4.634H4.634V24.39H8.585a1.317,1.317,0,0,1,0,2.634H3.317A1.244,1.244,0,0,1,2,25.707V3.317A1.244,1.244,0,0,1,3.317,2H27.024a1.244,1.244,0,0,1,1.317,1.317v22.39a1.244,1.244,0,0,1-1.317,1.317H21.756A1.244,1.244,0,0,1,20.439,25.707Z" transform="translate(12.841 645)"/></g></svg>