<svg xmlns="http://www.w3.org/2000/svg" width="55" height="55" viewBox="0 0 55 55"><g transform="translate(0 -574)"><rect width="55" height="55" rx="4" transform="translate(0 574)" fill="#3af5a3" opacity="0"/><path d="M7.136,5.682H21.864V3.227a1.227,1.227,0,0,1,2.455,0V5.682h2.455A1.159,1.159,0,0,1,28,6.909a1.159,1.159,0,0,1-1.227,1.227H24.318V20.409h2.455a1.227,1.227,0,0,1,0,2.455H24.318v2.455a1.227,1.227,0,0,1-2.455,0V22.864H7.136v2.455a1.159,1.159,0,0,1-1.227,1.227,1.159,1.159,0,0,1-1.227-1.227V22.864H2.227a1.227,1.227,0,0,1,0-2.455H4.682V8.136H2.227A1.159,1.159,0,0,1,1,6.909,1.159,1.159,0,0,1,2.227,5.682H4.682V3.227A1.159,1.159,0,0,1,5.909,2,1.159,1.159,0,0,1,7.136,3.227Zm0,2.455V20.409H21.864V8.136Z" transform="translate(13.179 587)"/></g></svg>