<svg xmlns="http://www.w3.org/2000/svg" width="55" height="55" viewBox="0 0 55 55"><g transform="translate(0 -327)"><rect width="55" height="55" rx="4" transform="translate(0 327)" fill="#3af5a3" opacity="0"/><path d="M19.357,17.714a7.134,7.134,0,0,0,7.071-7.071,7.071,7.071,0,1,0-14.143,0v.643h5.143a1.215,1.215,0,0,1,1.286,1.286v5.143Zm-.643,2.571v6.429A1.215,1.215,0,0,1,17.429,28H3.286A1.215,1.215,0,0,1,2,26.714V12.571a1.215,1.215,0,0,1,1.286-1.286H9.714v-.643a9.643,9.643,0,1,1,19.286,0,9.713,9.713,0,0,1-9.643,9.643ZM4.571,25.429V13.857H16.143V25.429Z" transform="translate(11.841 340)" fill-rule="evenodd"/></g></svg>