<?xml version="1.0" encoding="UTF-8"?>
<svg id="Layer_1" data-name="Layer 1" xmlns="http://www.w3.org/2000/svg" viewBox="0 0 100 96.77">
  <defs>
    <style>
      .cls-1 {
        fill: none;
        stroke: #231f20;
        stroke-miterlimit: 10;
      }

      .cls-2 {
        fill: #3af5a3;
      }

      .cls-2, .cls-3, .cls-4, .cls-5 {
        stroke-width: 0px;
      }

      .cls-6 {
        fill: #231f20;
        font-family: ArialMT, Arial;
        font-size: 2px;
        isolation: isolate;
      }

      .cls-3 {
        fill-rule: evenodd;
      }

      .cls-5 {
        fill: #36c;
      }
    </style>
  </defs>
  <g id="Layer_1-2" data-name="Layer 1">
    <g>
      <g>
        <path id="bg" class="cls-5" d="M20.34,61.68h59c2.2,0,4,1.8,4,4v120c0,2.2-1.8,4-4,4H20.34c-2.2,0-4-1.8-4-4v-120c0-2.2,1.8-4,4-4Z"/>
        <path id="Rectangle_20" data-name="Rectangle 20" class="cls-2" d="M26.34,67.68h47c2.2,0,4,1.8,4,4v47c0,2.2-1.8,4-4,4H26.34c-2.2,0-4-1.8-4-4v-47c0-2.2,1.8-4,4-4Z"/>
        <path id="Path_2" data-name="Path 2" class="cls-4" d="M37.74,100.78c-.2,0-.3,0-.5-.2-.8-.3-1.2-1.2-.9-2,1.6-5,6.1-8.6,11.4-9,4.9-.1,9.6,2.2,12.5,6.2v-4.1c0-.8.7-1.5,1.5-1.5s1.5.7,1.5,1.5v9h-9c-.8,0-1.5-.7-1.5-1.5s.7-1.5,1.5-1.5h3.8c-2.2-3.3-6.1-5.2-10.1-5-4.1.3-7.5,3-8.7,6.9-.2.8-.8,1.2-1.5,1.2Z"/>
      </g>
      <g>
        <path id="bg-2" class="cls-5" d="M21.24-566.32h58.1c2.7,0,4.9,2.2,4.9,5V44.68c0,2.8-2.2,5-4.9,5H21.24c-2.7,0-4.9-2.2-4.9-5v-606c0-2.8,2.2-5,4.9-5Z"/>
        <path id="wrap" class="cls-2" d="M26.34-11.32h47c2.2,0,4,1.8,4,4v47c0,2.2-1.8,4-4,4H26.34c-2.2,0-4-1.8-4-4V-7.32c0-2.2,1.8-4,4-4Z"/>
        <path id="ico-add" class="cls-3" d="M36.54,5.38c0-1.5,1.2-2.7,2.7-2.7h21.6c1.5,0,2.7,1.2,2.7,2.7v21.6c0,1.5-1.2,2.7-2.7,2.7h-21.6c-1.5,0-2.7-1.2-2.7-2.7V5.38ZM48.64,10.78c0-.7.6-1.3,1.4-1.3.7,0,1.3.6,1.3,1.3v4.1h4c.7,0,1.4.6,1.4,1.3s-.6,1.4-1.3,1.4h-4v4.1c0,.7-.6,1.4-1.3,1.4s-1.4-.6-1.4-1.3h0v-4.1h-4.1c-.7,0-1.4-.6-1.4-1.3s.6-1.4,1.3-1.4h4.1v-4.2Z"/>
      </g>
    </g>
  </g>
  <g id="Dimensions">
    <g id="Manual_Dimension" data-name="Manual Dimension">
      <line class="cls-1" x1="68.94" y1="49.28" x2="72.94" y2="49.28"/>
      <line class="cls-1" x1="68.94" y1="61.68" x2="72.94" y2="61.68"/>
      <text class="cls-6" transform="translate(71.99 51.07) rotate(90) scale(2.06 1)"><tspan x="0" y="0">12 pt</tspan></text>
      <line class="cls-1" x1="68.94" y1="61.68" x2="68.94" y2="49.28"/>
    </g>
  </g>
</svg>