<?xml version="1.0" encoding="UTF-8"?>
<svg id="Layer_1" data-name="Layer 1" xmlns="http://www.w3.org/2000/svg" viewBox="0 0 99.35 99.35">
  <defs>
    <style>
      .cls-1 {
        fill: none;
        stroke: #231f20;
        stroke-miterlimit: 10;
      }

      .cls-2 {
        fill: #3af5a3;
      }

      .cls-2, .cls-3, .cls-4 {
        stroke-width: 0px;
      }

      .cls-5 {
        font-size: 2px;
      }

      .cls-5, .cls-6 {
        fill: #231f20;
        font-family: ArialMT, Arial;
        isolation: isolate;
      }

      .cls-6 {
        font-size: 3px;
      }

      .cls-4 {
        fill: #36c;
      }
    </style>
  </defs>
  <g id="Layer_1-2" data-name="Layer 1">
    <g>
      <path id="bg-2" class="cls-4" d="M20.9,16.19h58.1c2.7,0,4.9,2.2,4.9,5v606c0,2.8-2.2,5-4.9,5H20.9c-2.7,0-4.9-2.2-4.9-5V21.19c0-2.8,2.2-5,4.9-5Z"/>
      <g>
        <path id="wrap-9" class="cls-2" d="M26,83.19h47c2.2,0,4,1.8,4,4v47c0,2.2-1.8,4-4,4H26c-2.2,0-4-1.8-4-4v-47c0-2.2,1.8-4,4-4Z"/>
        <path id="wrap-10" class="cls-2" d="M26,22.19h47c2.2,0,4,1.8,4,4v47c0,2.2-1.8,4-4,4H26c-2.2,0-4-1.8-4-4V26.19c0-2.2,1.8-4,4-4Z"/>
      </g>
      <g>
        <path id="ico-text" class="cls-3" d="M36.2,100.19c0-1.7,1.3-3,3-3h21c1.7,0,3,1.3,3,3v3c0,.8-.7,1.5-1.5,1.5s-1.5-.7-1.5-1.5v-3h-9v21h3c.8,0,1.5.7,1.5,1.5s-.7,1.5-1.5,1.5h-9c-.8,0-1.5-.7-1.5-1.5s.7-1.5,1.5-1.5h3v-21h-9v3c0,.8-.5,1.5-1.3,1.5h-.2c-.8,0-1.5-.5-1.5-1.3v-3.2Z"/>
        <path id="ico-arrow" class="cls-3" d="M42.2,59.39l6-3.6,2.6,6.4c.3.7,1.1,1.1,1.8.8h0l.7-.3c.7-.3,1.1-1.1.8-1.8h0l-2.6-6.4,6.6-2-15.9-16.3v23.2Z"/>
      </g>
    </g>
  </g>
  <g id="Dimensions">
    <g id="Manual_Dimension" data-name="Manual Dimension">
      <line class="cls-1" x1="77" y1="22.19" x2="77" y2="26.19"/>
      <line class="cls-1" x1="22" y1="22.19" x2="22" y2="26.19"/>
      <text class="cls-6" transform="translate(45.66 27.14)"><tspan x="0" y="0" xml:space="preserve"> 55 pt </tspan></text>
      <line class="cls-1" x1="22" y1="22.19" x2="77" y2="22.19"/>
    </g>
    <g id="Manual_Dimension-2" data-name="Manual Dimension">
      <line class="cls-1" x1="76.7" y1="22.19" x2="72.7" y2="22.19"/>
      <line class="cls-1" x1="76.7" y1="77.19" x2="72.7" y2="77.19"/>
      <text class="cls-6" transform="translate(71.75 45.84) rotate(90)"><tspan x="0" y="0" xml:space="preserve"> 55 pt </tspan></text>
      <line class="cls-1" x1="76.7" y1="77.19" x2="76.7" y2="22.19"/>
    </g>
    <g id="Manual_Dimension-3" data-name="Manual Dimension">
      <line class="cls-1" x1="22.5" y1="83.69" x2="18.5" y2="83.69"/>
      <line class="cls-1" x1="22.5" y1="77.69" x2="18.5" y2="77.69"/>
      <text class="cls-5" transform="translate(19.5 82.73) rotate(-90)"><tspan x="0" y="0" xml:space="preserve"> 6 pt </tspan></text>
      <line class="cls-1" x1="22.5" y1="77.69" x2="22.5" y2="83.69"/>
    </g>
    <g id="Manual_Dimension-4" data-name="Manual Dimension">
      <line class="cls-1" x1="16" y1="33.59" x2="16" y2="29.59"/>
      <line class="cls-1" x1="22" y1="33.59" x2="22" y2="29.59"/>
      <text class="cls-5" transform="translate(16.95 30.54)"><tspan x="0" y="0" xml:space="preserve"> 6 pt </tspan></text>
      <line class="cls-1" x1="22" y1="33.59" x2="16" y2="33.59"/>
    </g>
    <g id="Manual_Dimension-5" data-name="Manual Dimension">
      <line class="cls-1" x1="41.3" y1="22.19" x2="37.3" y2="22.19"/>
      <line class="cls-1" x1="41.3" y1="16.19" x2="37.3" y2="16.19"/>
      <text class="cls-5" transform="translate(38.33 21.25) rotate(-90)"><tspan x="0" y="0" xml:space="preserve"> 6 pt </tspan></text>
      <line class="cls-1" x1="41.3" y1="16.19" x2="41.3" y2="22.19"/>
    </g>
  </g>
</svg>